<svg width="21" height="21" viewBox="0 0 21 21" fill="none" xmlns="http://www.w3.org/2000/svg">
<path d="M14.2552 16.9528C13.436 17.747 12.5415 17.6884 11.6805 17.2872C10.7694 16.8692 9.94178 16.8859 8.97209 17.2872C7.76834 17.8055 7.13303 17.655 6.41412 16.9528C2.33474 12.748 2.93662 6.34477 7.56771 6.1107C8.69623 6.16922 9.48201 6.7293 10.1424 6.77945C11.1288 6.57883 12.0734 6.00203 13.1267 6.07727C14.389 6.17758 15.3419 6.67914 15.9689 7.58195C13.3608 9.14516 13.9794 12.5809 16.3701 13.5422C15.8937 14.7961 15.2751 16.0416 14.2552 16.9612L14.2469 16.9528H14.2552ZM10.0588 6.06055C9.93342 4.19641 11.4465 2.65828 13.1852 2.50781C13.4276 4.66453 11.2291 6.26953 10.0588 6.06055Z" fill="white"/>
</svg>
