<svg width="16" height="16" viewBox="0 0 16 16" fill="none" xmlns="http://www.w3.org/2000/svg">
<g clip-path="url(#clip0_316_12343)">
<path d="M14.1441 7.68018C14.1441 7.19115 14.1002 6.72094 14.0187 6.26953H7.52344V8.94035H11.235C11.072 9.79928 10.583 10.5265 9.84943 11.0156V12.7522H12.0877C13.3917 11.5485 14.1441 9.78047 14.1441 7.68018Z" fill="#4285F4"/>
<path d="M7.51996 14.4187C9.38201 14.4187 10.9431 13.8043 12.0842 12.7511L9.84596 11.0144C9.23154 11.4282 8.44785 11.679 7.51996 11.679C5.72688 11.679 4.20338 10.4689 3.65793 8.83887H1.36328V10.6194C2.49807 12.8702 4.82406 14.4187 7.51996 14.4187Z" fill="#34A853"/>
<path d="M3.65945 8.83383C3.52152 8.42004 3.44002 7.98117 3.44002 7.5235C3.44002 7.06582 3.52152 6.62695 3.65945 6.21316V4.43262H1.3648C0.89459 5.36051 0.625 6.40752 0.625 7.5235C0.625 8.63947 0.89459 9.68648 1.3648 10.6144L3.15162 9.22254L3.65945 8.83383Z" fill="#FBBC05"/>
<path d="M7.51996 3.37203C8.53562 3.37203 9.43844 3.72312 10.1594 4.40023L12.1343 2.42533C10.9369 1.30936 9.38201 0.625977 7.51996 0.625977C4.82406 0.625977 2.49807 2.17455 1.36328 4.43158L3.65793 6.21213C4.20338 4.58205 5.72687 3.37203 7.51996 3.37203Z" fill="#EA4335"/>
</g>
<defs>
<clipPath id="clip0_316_12343">
<rect width="15.0469" height="15.0469" fill="white"/>
</clipPath>
</defs>
</svg>
