<svg width="20" height="20" viewBox="0 0 20 20" fill="none" xmlns="http://www.w3.org/2000/svg">
<path d="M15.8294 5.83333V3.33333C15.8294 3.11232 15.7416 2.90036 15.5853 2.74408C15.4291 2.5878 15.2171 2.5 14.9961 2.5H4.16276C3.72073 2.5 3.29681 2.67559 2.98425 2.98816C2.67169 3.30072 2.49609 3.72464 2.49609 4.16667C2.49609 4.60869 2.67169 5.03262 2.98425 5.34518C3.29681 5.65774 3.72073 5.83333 4.16276 5.83333H16.6628C16.8838 5.83333 17.0957 5.92113 17.252 6.07741C17.4083 6.23369 17.4961 6.44565 17.4961 6.66667V10M17.4961 10H14.9961C14.5541 10 14.1301 10.1756 13.8176 10.4882C13.505 10.8007 13.3294 11.2246 13.3294 11.6667C13.3294 12.1087 13.505 12.5326 13.8176 12.8452C14.1301 13.1577 14.5541 13.3333 14.9961 13.3333H17.4961C17.7171 13.3333 17.9291 13.2455 18.0853 13.0893C18.2416 12.933 18.3294 12.721 18.3294 12.5V10.8333C18.3294 10.6123 18.2416 10.4004 18.0853 10.2441C17.9291 10.0878 17.7171 10 17.4961 10Z" stroke="#9CA3AF" stroke-width="1.39323" stroke-linecap="round" stroke-linejoin="round"/>
<path d="M2.49609 4.16602V15.8327C2.49609 16.2747 2.67169 16.6986 2.98425 17.0112C3.29681 17.3238 3.72073 17.4993 4.16276 17.4993H16.6628C16.8838 17.4993 17.0957 17.4116 17.252 17.2553C17.4083 17.099 17.4961 16.887 17.4961 16.666V13.3327" stroke="#9CA3AF" stroke-width="1.39323" stroke-linecap="round" stroke-linejoin="round"/>
</svg>
